<svg width="176" height="50" viewBox="0 0 176 50" fill="none" xmlns="http://www.w3.org/2000/svg">
<rect width="80" height="50" rx="10" fill="#2F6AFF"/>
<rect width="80" height="50" rx="10" fill="#2F6AFF"/>
<path d="M30.858 28.92V33H18.714V15.96H30.642V20.04H23.394V22.44H29.586V26.232H23.394V28.92H30.858ZM33.0343 33V15.96H37.7143V28.92H45.4423V33H33.0343ZM54.5424 33.144C53.2464 33.144 52.0704 32.904 51.0144 32.424C49.9584 31.928 49.0464 31.272 48.2784 30.456C47.5264 29.624 46.9424 28.696 46.5264 27.672C46.1264 26.632 45.9264 25.56 45.9264 24.456C45.9264 23.32 46.1424 22.24 46.5744 21.216C47.0064 20.192 47.6064 19.28 48.3744 18.48C49.1584 17.664 50.0784 17.024 51.1344 16.56C52.2064 16.096 53.3744 15.864 54.6384 15.864C55.9344 15.864 57.1104 16.112 58.1664 16.608C59.2224 17.088 60.1264 17.744 60.8784 18.576C61.6304 19.408 62.2064 20.344 62.6064 21.384C63.0224 22.408 63.2304 23.464 63.2304 24.552C63.2304 25.672 63.0144 26.744 62.5824 27.768C62.1664 28.792 61.5664 29.712 60.7824 30.528C60.0144 31.328 59.1024 31.968 58.0464 32.448C56.9904 32.912 55.8224 33.144 54.5424 33.144ZM50.6784 24.504C50.6784 25.08 50.7584 25.64 50.9184 26.184C51.0784 26.712 51.3184 27.192 51.6384 27.624C51.9584 28.04 52.3584 28.376 52.8384 28.632C53.3344 28.872 53.9184 28.992 54.5904 28.992C55.2624 28.992 55.8464 28.864 56.3424 28.608C56.8384 28.352 57.2384 28.008 57.5424 27.576C57.8624 27.128 58.0944 26.64 58.2384 26.112C58.3984 25.568 58.4784 25.016 58.4784 24.456C58.4784 23.88 58.3984 23.328 58.2384 22.8C58.0784 22.272 57.8384 21.8 57.5184 21.384C57.1984 20.952 56.7904 20.616 56.2944 20.376C55.7984 20.136 55.2224 20.016 54.5664 20.016C53.8944 20.016 53.3104 20.144 52.8144 20.4C52.3344 20.656 51.9344 21 51.6144 21.432C51.2944 21.848 51.0544 22.328 50.8944 22.872C50.7504 23.4 50.6784 23.944 50.6784 24.504Z" fill="white"/>
<path d="M30.858 28.92V33H18.714V15.96H30.642V20.04H23.394V22.44H29.586V26.232H23.394V28.92H30.858ZM33.0343 33V15.96H37.7143V28.92H45.4423V33H33.0343ZM54.5424 33.144C53.2464 33.144 52.0704 32.904 51.0144 32.424C49.9584 31.928 49.0464 31.272 48.2784 30.456C47.5264 29.624 46.9424 28.696 46.5264 27.672C46.1264 26.632 45.9264 25.56 45.9264 24.456C45.9264 23.32 46.1424 22.24 46.5744 21.216C47.0064 20.192 47.6064 19.28 48.3744 18.48C49.1584 17.664 50.0784 17.024 51.1344 16.56C52.2064 16.096 53.3744 15.864 54.6384 15.864C55.9344 15.864 57.1104 16.112 58.1664 16.608C59.2224 17.088 60.1264 17.744 60.8784 18.576C61.6304 19.408 62.2064 20.344 62.6064 21.384C63.0224 22.408 63.2304 23.464 63.2304 24.552C63.2304 25.672 63.0144 26.744 62.5824 27.768C62.1664 28.792 61.5664 29.712 60.7824 30.528C60.0144 31.328 59.1024 31.968 58.0464 32.448C56.9904 32.912 55.8224 33.144 54.5424 33.144ZM50.6784 24.504C50.6784 25.08 50.7584 25.64 50.9184 26.184C51.0784 26.712 51.3184 27.192 51.6384 27.624C51.9584 28.04 52.3584 28.376 52.8384 28.632C53.3344 28.872 53.9184 28.992 54.5904 28.992C55.2624 28.992 55.8464 28.864 56.3424 28.608C56.8384 28.352 57.2384 28.008 57.5424 27.576C57.8624 27.128 58.0944 26.64 58.2384 26.112C58.3984 25.568 58.4784 25.016 58.4784 24.456C58.4784 23.88 58.3984 23.328 58.2384 22.8C58.0784 22.272 57.8384 21.8 57.5184 21.384C57.1984 20.952 56.7904 20.616 56.2944 20.376C55.7984 20.136 55.2224 20.016 54.5664 20.016C53.8944 20.016 53.3104 20.144 52.8144 20.4C52.3344 20.656 51.9344 21 51.6144 21.432C51.2944 21.848 51.0544 22.328 50.8944 22.872C50.7504 23.4 50.6784 23.944 50.6784 24.504Z" fill="white"/>
<path d="M99.8962 20.04H95.0002V33H90.3202V20.04H85.4002V15.96H99.8962V20.04ZM109.552 24.264C108.672 24.264 107.872 24.36 107.152 24.552C106.432 24.744 105.896 25.064 105.544 25.512V33H100.984V20.376H105.16V22.776C105.608 21.928 106.168 21.28 106.84 20.832C107.512 20.368 108.224 20.136 108.976 20.136C109.152 20.136 109.272 20.136 109.336 20.136C109.416 20.136 109.488 20.144 109.552 20.16V24.264ZM110.132 29.184C110.132 28.336 110.364 27.592 110.828 26.952C111.292 26.296 111.932 25.784 112.748 25.416C113.58 25.048 114.524 24.864 115.58 24.864C116.076 24.864 116.54 24.904 116.972 24.984C117.42 25.064 117.804 25.184 118.124 25.344V24.96C118.124 24.368 117.948 23.928 117.596 23.64C117.26 23.352 116.708 23.208 115.94 23.208C115.236 23.208 114.572 23.328 113.948 23.568C113.34 23.792 112.7 24.128 112.028 24.576L110.708 21.744C111.556 21.2 112.444 20.8 113.372 20.544C114.316 20.272 115.324 20.136 116.396 20.136C118.396 20.136 119.94 20.592 121.028 21.504C122.132 22.4 122.684 23.736 122.684 25.512V27.96C122.684 28.392 122.748 28.696 122.876 28.872C123.004 29.032 123.228 29.128 123.548 29.16V33C123.18 33.08 122.828 33.136 122.492 33.168C122.172 33.216 121.884 33.24 121.628 33.24C120.812 33.24 120.188 33.096 119.756 32.808C119.34 32.504 119.068 32.064 118.94 31.488L118.844 31.032C118.284 31.752 117.636 32.304 116.9 32.688C116.164 33.056 115.38 33.24 114.548 33.24C113.716 33.24 112.964 33.064 112.292 32.712C111.62 32.36 111.092 31.88 110.708 31.272C110.324 30.648 110.132 29.952 110.132 29.184ZM117.524 29.496C117.7 29.368 117.844 29.232 117.956 29.088C118.068 28.928 118.124 28.768 118.124 28.608V27.672C117.868 27.576 117.572 27.496 117.236 27.432C116.916 27.368 116.628 27.336 116.372 27.336C115.828 27.336 115.364 27.472 114.98 27.744C114.612 28.016 114.428 28.36 114.428 28.776C114.428 29 114.492 29.208 114.62 29.4C114.748 29.576 114.924 29.72 115.148 29.832C115.372 29.928 115.628 29.976 115.916 29.976C116.188 29.976 116.468 29.936 116.756 29.856C117.06 29.76 117.316 29.64 117.524 29.496ZM131.435 33.24C130.315 33.24 129.323 33.064 128.459 32.712C127.611 32.36 126.891 31.88 126.299 31.272C125.707 30.648 125.259 29.944 124.955 29.16C124.651 28.376 124.499 27.552 124.499 26.688C124.499 25.536 124.763 24.464 125.291 23.472C125.835 22.464 126.619 21.656 127.643 21.048C128.683 20.44 129.947 20.136 131.435 20.136C132.955 20.136 134.235 20.456 135.275 21.096C136.315 21.736 137.091 22.56 137.603 23.568L133.163 24.912C132.955 24.608 132.699 24.376 132.395 24.216C132.107 24.056 131.779 23.976 131.411 23.976C130.995 23.976 130.619 24.088 130.283 24.312C129.947 24.52 129.675 24.824 129.467 25.224C129.275 25.624 129.179 26.112 129.179 26.688C129.179 27.248 129.275 27.736 129.467 28.152C129.675 28.552 129.947 28.864 130.283 29.088C130.619 29.296 130.995 29.4 131.411 29.4C131.667 29.4 131.899 29.368 132.107 29.304C132.315 29.224 132.507 29.112 132.683 28.968C132.875 28.824 133.035 28.656 133.163 28.464L137.603 29.808C137.267 30.48 136.803 31.072 136.211 31.584C135.635 32.096 134.947 32.504 134.147 32.808C133.363 33.096 132.459 33.24 131.435 33.24ZM147.375 33L144.519 28.392L143.607 29.4V33H139.047V15.48H143.607V25.056L146.967 20.376H151.767L147.423 25.896L152.199 33H147.375ZM158.598 33.24C157.494 33.24 156.51 33.072 155.646 32.736C154.782 32.384 154.054 31.912 153.462 31.32C152.886 30.728 152.446 30.048 152.142 29.28C151.838 28.512 151.686 27.704 151.686 26.856C151.686 25.64 151.95 24.528 152.478 23.52C153.006 22.496 153.782 21.68 154.806 21.072C155.83 20.448 157.094 20.136 158.598 20.136C160.102 20.136 161.366 20.44 162.39 21.048C163.414 21.656 164.19 22.456 164.718 23.448C165.246 24.44 165.51 25.52 165.51 26.688C165.51 26.928 165.494 27.176 165.462 27.432C165.446 27.672 165.422 27.888 165.39 28.08H156.534C156.566 28.528 156.686 28.896 156.894 29.184C157.118 29.456 157.39 29.656 157.71 29.784C158.046 29.912 158.39 29.976 158.742 29.976C159.238 29.976 159.702 29.864 160.134 29.64C160.582 29.416 160.878 29.104 161.022 28.704L164.886 29.808C164.55 30.48 164.078 31.072 163.47 31.584C162.878 32.096 162.174 32.504 161.358 32.808C160.542 33.096 159.622 33.24 158.598 33.24ZM156.438 25.344H160.614C160.566 24.928 160.446 24.576 160.254 24.288C160.078 24 159.838 23.776 159.534 23.616C159.246 23.456 158.91 23.376 158.526 23.376C158.142 23.376 157.798 23.456 157.494 23.616C157.206 23.776 156.966 24 156.774 24.288C156.598 24.576 156.486 24.928 156.438 25.344ZM175.575 24.264C174.695 24.264 173.895 24.36 173.175 24.552C172.455 24.744 171.919 25.064 171.567 25.512V33H167.007V20.376H171.183V22.776C171.631 21.928 172.191 21.28 172.863 20.832C173.535 20.368 174.247 20.136 174.999 20.136C175.175 20.136 175.295 20.136 175.359 20.136C175.439 20.136 175.511 20.144 175.575 20.16V24.264Z" fill="white"/>
<path d="M99.8962 20.04H95.0002V33H90.3202V20.04H85.4002V15.96H99.8962V20.04ZM109.552 24.264C108.672 24.264 107.872 24.36 107.152 24.552C106.432 24.744 105.896 25.064 105.544 25.512V33H100.984V20.376H105.16V22.776C105.608 21.928 106.168 21.28 106.84 20.832C107.512 20.368 108.224 20.136 108.976 20.136C109.152 20.136 109.272 20.136 109.336 20.136C109.416 20.136 109.488 20.144 109.552 20.16V24.264ZM110.132 29.184C110.132 28.336 110.364 27.592 110.828 26.952C111.292 26.296 111.932 25.784 112.748 25.416C113.58 25.048 114.524 24.864 115.58 24.864C116.076 24.864 116.54 24.904 116.972 24.984C117.42 25.064 117.804 25.184 118.124 25.344V24.96C118.124 24.368 117.948 23.928 117.596 23.64C117.26 23.352 116.708 23.208 115.94 23.208C115.236 23.208 114.572 23.328 113.948 23.568C113.34 23.792 112.7 24.128 112.028 24.576L110.708 21.744C111.556 21.2 112.444 20.8 113.372 20.544C114.316 20.272 115.324 20.136 116.396 20.136C118.396 20.136 119.94 20.592 121.028 21.504C122.132 22.4 122.684 23.736 122.684 25.512V27.96C122.684 28.392 122.748 28.696 122.876 28.872C123.004 29.032 123.228 29.128 123.548 29.16V33C123.18 33.08 122.828 33.136 122.492 33.168C122.172 33.216 121.884 33.24 121.628 33.24C120.812 33.24 120.188 33.096 119.756 32.808C119.34 32.504 119.068 32.064 118.94 31.488L118.844 31.032C118.284 31.752 117.636 32.304 116.9 32.688C116.164 33.056 115.38 33.24 114.548 33.24C113.716 33.24 112.964 33.064 112.292 32.712C111.62 32.36 111.092 31.88 110.708 31.272C110.324 30.648 110.132 29.952 110.132 29.184ZM117.524 29.496C117.7 29.368 117.844 29.232 117.956 29.088C118.068 28.928 118.124 28.768 118.124 28.608V27.672C117.868 27.576 117.572 27.496 117.236 27.432C116.916 27.368 116.628 27.336 116.372 27.336C115.828 27.336 115.364 27.472 114.98 27.744C114.612 28.016 114.428 28.36 114.428 28.776C114.428 29 114.492 29.208 114.62 29.4C114.748 29.576 114.924 29.72 115.148 29.832C115.372 29.928 115.628 29.976 115.916 29.976C116.188 29.976 116.468 29.936 116.756 29.856C117.06 29.76 117.316 29.64 117.524 29.496ZM131.435 33.24C130.315 33.24 129.323 33.064 128.459 32.712C127.611 32.36 126.891 31.88 126.299 31.272C125.707 30.648 125.259 29.944 124.955 29.16C124.651 28.376 124.499 27.552 124.499 26.688C124.499 25.536 124.763 24.464 125.291 23.472C125.835 22.464 126.619 21.656 127.643 21.048C128.683 20.44 129.947 20.136 131.435 20.136C132.955 20.136 134.235 20.456 135.275 21.096C136.315 21.736 137.091 22.56 137.603 23.568L133.163 24.912C132.955 24.608 132.699 24.376 132.395 24.216C132.107 24.056 131.779 23.976 131.411 23.976C130.995 23.976 130.619 24.088 130.283 24.312C129.947 24.52 129.675 24.824 129.467 25.224C129.275 25.624 129.179 26.112 129.179 26.688C129.179 27.248 129.275 27.736 129.467 28.152C129.675 28.552 129.947 28.864 130.283 29.088C130.619 29.296 130.995 29.4 131.411 29.4C131.667 29.4 131.899 29.368 132.107 29.304C132.315 29.224 132.507 29.112 132.683 28.968C132.875 28.824 133.035 28.656 133.163 28.464L137.603 29.808C137.267 30.48 136.803 31.072 136.211 31.584C135.635 32.096 134.947 32.504 134.147 32.808C133.363 33.096 132.459 33.24 131.435 33.24ZM147.375 33L144.519 28.392L143.607 29.4V33H139.047V15.48H143.607V25.056L146.967 20.376H151.767L147.423 25.896L152.199 33H147.375ZM158.598 33.24C157.494 33.24 156.51 33.072 155.646 32.736C154.782 32.384 154.054 31.912 153.462 31.32C152.886 30.728 152.446 30.048 152.142 29.28C151.838 28.512 151.686 27.704 151.686 26.856C151.686 25.64 151.95 24.528 152.478 23.52C153.006 22.496 153.782 21.68 154.806 21.072C155.83 20.448 157.094 20.136 158.598 20.136C160.102 20.136 161.366 20.44 162.39 21.048C163.414 21.656 164.19 22.456 164.718 23.448C165.246 24.44 165.51 25.52 165.51 26.688C165.51 26.928 165.494 27.176 165.462 27.432C165.446 27.672 165.422 27.888 165.39 28.08H156.534C156.566 28.528 156.686 28.896 156.894 29.184C157.118 29.456 157.39 29.656 157.71 29.784C158.046 29.912 158.39 29.976 158.742 29.976C159.238 29.976 159.702 29.864 160.134 29.64C160.582 29.416 160.878 29.104 161.022 28.704L164.886 29.808C164.55 30.48 164.078 31.072 163.47 31.584C162.878 32.096 162.174 32.504 161.358 32.808C160.542 33.096 159.622 33.24 158.598 33.24ZM156.438 25.344H160.614C160.566 24.928 160.446 24.576 160.254 24.288C160.078 24 159.838 23.776 159.534 23.616C159.246 23.456 158.91 23.376 158.526 23.376C158.142 23.376 157.798 23.456 157.494 23.616C157.206 23.776 156.966 24 156.774 24.288C156.598 24.576 156.486 24.928 156.438 25.344ZM175.575 24.264C174.695 24.264 173.895 24.36 173.175 24.552C172.455 24.744 171.919 25.064 171.567 25.512V33H167.007V20.376H171.183V22.776C171.631 21.928 172.191 21.28 172.863 20.832C173.535 20.368 174.247 20.136 174.999 20.136C175.175 20.136 175.295 20.136 175.359 20.136C175.439 20.136 175.511 20.144 175.575 20.16V24.264Z" fill="white"/>
</svg>